<svg xmlns="http://www.w3.org/2000/svg" xmlns:xlink="http://www.w3.org/1999/xlink"><symbol id="sprite-angle" viewBox="0 0 20 20"><path d="M20 20a20 20 0 0 1-20-20v20z"/></symbol><use xlink:href="#sprite-angle" width="20" height="20"/><view id="sprite-angle-view" viewBox="0 0 20 20"/><symbol id="sprite-arrow-down" fill="none" viewBox="0 0 12 12"><path stroke="#fff" d="m11.46 8.18-5.46-4.9-5.45 4.9"/></symbol><use xlink:href="#sprite-arrow-down" width="12" height="12" y="20"/><view id="sprite-arrow-down-view" viewBox="0 20 12 12"/><symbol id="sprite-arrow-swiper" fill="none" viewBox="0 0 11 12"><path d="M11 5.69h-10m0 0 4.97 5.31m-4.97-5.31 4.97-4.69"/></symbol><use xlink:href="#sprite-arrow-swiper" width="11" height="12" y="32"/><view id="sprite-arrow-swiper-view" viewBox="0 32 11 12"/><symbol id="sprite-arrow" fill="none" viewBox="0 0 10 10"><path d="m1 9 8-8m0 0h-7.95m7.95 0v7.95"/></symbol><use xlink:href="#sprite-arrow" width="10" height="10" y="44"/><view id="sprite-arrow-view" viewBox="0 44 10 10"/><symbol id="sprite-check" fill="none" viewBox="0 0 10 10"><path stroke="#fff" stroke-linecap="round" stroke-linejoin="round" d="m1 4.5 2.95 3.5 5.05-6"/></symbol><use xlink:href="#sprite-check" width="10" height="10" y="54"/><view id="sprite-check-view" viewBox="0 54 10 10"/><symbol id="sprite-cross" fill="none" viewBox="0 0 22 22"><path d="m2 20 9-9m0 0 9-9m-9 9 9 9m-9-9-9-9"/></symbol><use xlink:href="#sprite-cross" width="22" height="22" y="64"/><view id="sprite-cross-view" viewBox="0 64 22 22"/><symbol id="sprite-logo" fill="none" viewBox="0 0 410 404"><path fill="url(#a)" d="m399.64 59.53-184 329.02a10 10 0 0 1-17.41.07l-187.65-329.06a10 10 0 0 1 10.45-14.8l184.2 32.92a10 10 0 0 0 3.55 0l180.34-32.87a10 10 0 0 1 10.52 14.72"/><path fill="url(#b)" d="m292.96 1.57-136.16 26.69a5 5 0 0 0-4.03 4.6l-8.38 141.47a5 5 0 0 0 6.12 5.17l37.91-8.75a5 5 0 0 1 6.02 5.87l-11.26 55.15a5 5 0 0 0 6.35 5.79l23.42-7.11a5 5 0 0 1 6.35 5.8l-17.9 86.62c-1.12 5.42 6.09 8.38 9.1 3.73l2-3.1 110.95-221.43a5 5 0 0 0-5.41-7.15l-39.03 7.53a5 5 0 0 1-5.75-6.3l25.47-88.28a5 5 0 0 0-5.77-6.3"/><defs><linearGradient id="a" x1="6" x2="235" y1="33" y2="344" gradientUnits="userSpaceOnUse"><stop stop-color="#41D1FF"/><stop offset="1" stop-color="#BD34FE"/></linearGradient><linearGradient id="b" x1="194.651" x2="236.076" y1="8.818" y2="292.989" gradientUnits="userSpaceOnUse"><stop stop-color="#FFEA83"/><stop offset=".083" stop-color="#FFDD35"/><stop offset="1" stop-color="#FFA800"/></linearGradient></defs></symbol><use xlink:href="#sprite-logo" width="410" height="404" y="86"/><view id="sprite-logo-view" viewBox="0 86 410 404"/><symbol id="sprite-logotype" fill="none" viewBox="0 0 52 52"><rect width="52" height="52" fill="#fff" rx="26"/><path fill="#316DC2" d="M11.92 19.8c-.85.6-1.35 1.9-.41 3.43.94 1.54 14.38 11.9 14.88 12.2s.98.33 2.24-.68 11.74-8.88 12-9.12c.44-.38.54-1.3 0-1.73 0 0-12.7 9.5-13.11 9.89-.42.38-1.06-.24-.94-1.06s.2-.9 1.82-2.16a2566 2566 0 0 1 11.18-8.48c.47-.35.48-.96-.3-1.5a5178 5178 0 0 1-13.01-9.27c-.4-.3-.93-.55-1.73.02-.81.58-11.06 7.35-12.62 8.46"/><path fill="#316DC2" d="M26.39 36.43c-.33-.19-6.23-4.71-10.51-8.24v7.35c0 5.37 15.12 8.24 20.13 1.64v-7.03a777.64 777.64 0 0 0-7.38 5.61c-1.26 1-1.75.96-2.24.67"/><path fill="#98B8E6" d="M32.78 28.37s2.25 1.13 2.41 5.68l-1.09-.3-.87 1.85c-.37-4.98-2.37-5.7-2.37-5.7z"/></symbol><use xlink:href="#sprite-logotype" width="52" height="52" y="490"/><view id="sprite-logotype-view" viewBox="0 490 52 52"/><symbol id="sprite-menu" fill="none" viewBox="0 0 22 22"><path d="M1 6h20m-20 5h20m-20 5h20"/></symbol><use xlink:href="#sprite-menu" width="22" height="22" y="542"/><view id="sprite-menu-view" viewBox="0 542 22 22"/><symbol id="sprite-ok" fill="none" viewBox="0 0 16 16"><path fill="#fff" d="M8 2.42c.96 0 1.74.77 1.74 1.71s-.78 1.7-1.74 1.7-1.74-.76-1.74-1.7.78-1.71 1.74-1.71m0 5.84a4.18 4.18 0 0 0 4.21-4.13c0-2.28-1.89-4.13-4.21-4.13s-4.21 1.85-4.21 4.13a4.17 4.17 0 0 0 4.2 4.13m1.71 3.37a8 8 0 0 0 2.45-1c.57-.35.75-1.1.39-1.66a1.25 1.25 0 0 0-1.7-.38 5.44 5.44 0 0 1-5.68 0 1.24 1.24 0 0 0-1.7.38 1.2 1.2 0 0 0 .39 1.66 8 8 0 0 0 2.44 1l-2.35 2.3a1.2 1.2 0 0 0 0 1.71 1.25 1.25 0 0 0 1.75 0l2.31-2.26 2.32 2.26c.48.48 1.25.48 1.74 0a1.2 1.2 0 0 0 0-1.7z"/></symbol><use xlink:href="#sprite-ok" width="16" height="16" y="564"/><view id="sprite-ok-view" viewBox="0 564 16 16"/><symbol id="sprite-reddit" fill="none" viewBox="0 0 16 16"><path fill="#fff" d="M9.41.36c-.46 0-.9.25-1.18.61-.28.36-.44.8-.55 1.26-.18.74-.23 1.56-.25 2.3-1.3.09-2.5.5-3.48 1.13-.4-.36-.88-.55-1.34-.55-.53 0-1.03.25-1.4.73-.71.94-.63 2.47.2 3.37a5 5 0 0 0-.1.86c0 3.08 3 5.57 6.69 5.57s6.68-2.5 6.68-5.57c0-.29-.03-.58-.08-.86.82-.9.9-2.43.2-3.37a1.74 1.74 0 0 0-1.4-.73c-.47 0-.95.2-1.35.55a7.4 7.4 0 0 0-3.47-1.13c.02-.69.07-1.4.2-1.93.08-.33.18-.58.28-.7.1-.14.18-.2.35-.2.38 0 .43.13.66.44.11.16.25.35.46.55.21.19.53.35.87.35v-1.34c-.1 0-.12 0-.18-.06s-.15-.2-.28-.38c-.26-.35-.77-.9-1.52-.9m3.67.13c-.88 0-1.59.84-1.59 1.88s.71 1.88 1.6 1.88c.87 0 1.59-.84 1.59-1.88s-.72-1.88-1.6-1.88m0 .67c.57 0 1.03.54 1.03 1.21s-.46 1.21-1.03 1.21-1.02-.54-1.02-1.2c0-.68.46-1.22 1.02-1.22m-5.09 4.41c3.13 0 5.78 2.07 5.78 4.5 0 2.44-2.65 4.5-5.78 4.5-3.13 0-5.78-2.06-5.78-4.5 0-2.43 2.65-4.5 5.78-4.5m-5.38.61c.16 0 .32.04.48.13a5.45 5.45 0 0 0-1.33 1.75c-.2-.51-.15-1.16.11-1.5a.9.9 0 0 1 .74-.38m10.76 0a.9.9 0 0 1 .74.38c.26.34.32.99.1 1.5a5.45 5.45 0 0 0-1.32-1.76c.16-.08.32-.12.48-.12m-7.64 1.67c-.57 0-1.03.55-1.03 1.22s.46 1.21 1.03 1.21 1.02-.54 1.02-1.21c0-.67-.46-1.22-1.02-1.22m4.53 0c-.57 0-1.03.55-1.03 1.22s.46 1.21 1.03 1.21 1.02-.54 1.02-1.21c0-.67-.46-1.22-1.02-1.22m-5.08 4.13a3.1 3.1 0 0 0 2.81 1.73c1.34 0 2.47-.85 2.83-1.74-.65.5-1.68.84-2.83.84s-2.15-.34-2.81-.84"/></symbol><use xlink:href="#sprite-reddit" width="16" height="16" y="580"/><view id="sprite-reddit-view" viewBox="0 580 16 16"/><symbol id="sprite-star" fill="none" viewBox="0 0 22 22"><path fill="#fff" d="m11 0 3.01 5.48 5.99.02-2.97 5.5 2.97 5.5-5.99.03-3.01 5.47-3.01-5.47-5.99-.03 2.97-5.5-2.97-5.5 5.99-.02z"/></symbol><use xlink:href="#sprite-star" width="22" height="22" y="596"/><view id="sprite-star-view" viewBox="0 596 22 22"/><symbol id="sprite-user" fill="none" viewBox="0 0 18 20"><path stroke="#163152" stroke-linecap="square" stroke-linejoin="round" d="M15.67 19h-13.34c-.73 0-1.33-.55-1.33-1.23a4.92 4.92 0 0 1 3.43-4.58l.41-.14a12.75 12.75 0 0 1 8.32 0l.4.14a4.92 4.92 0 0 1 3.44 4.58c0 .68-.6 1.23-1.33 1.23Zm-8.7-9.6a4.77 4.77 0 0 0 4.06 0 4.18 4.18 0 0 0 2.32-2.8l.08-.31a4.12 4.12 0 0 0-.84-3.54l-.12-.14c-.82-1.01-2.1-1.61-3.47-1.61s-2.65.6-3.47 1.6l-.12.15a4.11 4.11 0 0 0-.84 3.54l.08.32a4.17 4.17 0 0 0 2.32 2.8Z"/></symbol><use xlink:href="#sprite-user" width="18" height="20" y="618"/><view id="sprite-user-view" viewBox="0 618 18 20"/><symbol id="sprite-vk" fill="none" viewBox="0 0 16 16"><path fill="#fff" d="M15.86 11.42c-.05-.07-.31-.62-1.6-1.76-1.33-1.19-1.15-1 .46-3.05.98-1.25 1.38-2.02 1.25-2.34-.11-.31-.84-.23-.84-.23l-2.4.01s-.18-.02-.3.05a.65.65 0 0 0-.22.25s-.38.97-.9 1.8c-1.06 1.73-1.5 1.82-1.67 1.72-.4-.25-.3-1.01-.3-1.55 0-1.69.27-2.4-.52-2.57-.26-.06-.46-.1-1.13-.11-.85-.01-1.58 0-2 .2-.27.12-.48.4-.35.42.16.02.52.1.71.35.25.32.24 1.04.24 1.04s.14 1.98-.33 2.23c-.32.17-.77-.18-1.72-1.76-.5-.8-.87-1.7-.87-1.7s-.07-.17-.2-.25a1.03 1.03 0 0 0-.36-.15l-2.29.02s-.34 0-.47.15c-.11.13 0 .39 0 .39s1.78 4 3.81 6.02c1.86 1.85 3.97 1.73 3.97 1.73h.95s.3-.03.44-.19c.14-.14.13-.4.13-.4s-.02-1.22.58-1.4c.59-.18 1.34 1.18 2.14 1.7.6.4 1.06.31 1.06.31l2.14-.02s1.12-.07.59-.9"/></symbol><use xlink:href="#sprite-vk" width="16" height="16" y="638"/><view id="sprite-vk-view" viewBox="0 638 16 16"/></svg>